<svg width="1512" height="202" viewBox="0 0 1512 202" fill="none" xmlns="http://www.w3.org/2000/svg">
<path fill-rule="evenodd" clip-rule="evenodd" d="M717.254 0.512073C623.297 4.73748 442.889 43.5802 273.189 96.1214C259.504 100.359 241.476 105.944 233.126 108.534C120.53 143.457 59.9755 165.48 17.589 186.924C1.04679 195.294 -0.374386 196.309 0.0633546 199.436C0.702674 203.999 3.39406 203.294 34.089 190.525C65.8517 177.312 94.3209 167.718 172.399 143.915C433.352 64.36 555.236 35.1951 691.952 19.5955C718.742 16.5383 761.535 17.0707 761.535 20.4607C761.535 24.9891 734.695 40.4325 672.553 71.6606C596.103 110.079 549.564 135.564 545.442 141.266C538.399 151.01 546.145 158.041 562.907 157.119C572.485 156.593 574.66 156.194 618.573 146.923C744.653 120.302 825.232 106.792 934.438 93.9609C1100.74 74.421 1206.7 67.2125 1405.91 61.8847C1477.5 59.9708 1481.2 59.7037 1494.41 55.5132C1499.5 53.898 1505.59 52.3194 1507.93 52.0046C1513.42 51.2682 1513.35 50.3262 1507.76 49.6316C1505.32 49.3287 1499.73 47.8833 1495.32 46.4191C1484.45 42.8089 1477.25 42.6203 1415.19 44.32C1207.16 50.0173 1097.69 57.3034 939.077 76.0106C855.655 85.8489 818.484 91.1946 757.739 102.089C716.212 109.537 606.602 131.218 591.247 135.021C582.869 137.096 619.235 117.521 683.111 85.5715C763.911 45.157 779.996 34.1806 780.071 19.4147C780.156 2.76388 765.47 -1.65524 717.254 0.512073Z" fill="#E94040"/>
</svg>
