<svg width="24" height="24" viewBox="0 0 24 24" fill="none" xmlns="http://www.w3.org/2000/svg">
<path d="M4.9 19.1C0.999999 15.2 0.999999 8.79999 4.9 4.89999M7.8 16.2C5.5 13.9 5.5 10.1 7.8 7.69999M16.2 7.79999C18.5 10.1 18.5 13.9 16.2 16.3M19.1 4.89999C23 8.79999 23 15.1 19.1 19M14 12C14 13.1046 13.1046 14 12 14C10.8954 14 10 13.1046 10 12C10 10.8954 10.8954 9.99999 12 9.99999C13.1046 9.99999 14 10.8954 14 12Z" stroke="#FF1111" stroke-width="2" stroke-linecap="round" stroke-linejoin="round"/>
</svg>
